# xmcd
#
# Track frame offsets:
#	150
#	14244
#	30054
#	58139
#	78405
#	95639
#	113608
#	127473
#	142335
#	160927
#	182335
#	202370
#	230668
#	256531
#	278201
#	294485
#
# Disc length: 4180 seconds
#
# Revision: 1
# Processed by: cddbd v1.5.2PL0 Copyright (c) Steve Scherf et al.
# Submitted via: audiograbber 1.83.01
#
DISCID=ef105210
DTITLE=Roberto Carlos - Roberto Carlos em Las Vegas
DYEAR=2015
DGENRE=Ballad
TTITLE0=Emoções
TTITLE1=Como Vai Você-Que Sera De Ti
TTITLE2=Detalhes-Detalles
TTITLE3=Desabafo-Desahogo
TTITLE4=Mulher Pequena-Mujer Pequeña
TTITLE5=Proposta
TTITLE6=O Côncavo e o Convexo
TTITLE7=Canzone Per Te
TTITLE8=Un Gato En La Oscuridad
TTITLE9=I'm In The Mood For Love
TTITLE10=Breakfast-Café da Manhã
TTITLE11=Cavalgada
TTITLE12=Esse Cara Sou Eu
TTITLE13=El Día Que Me Quieras
TTITLE14=Amigo-Amigo
TTITLE15=Jesus Cristo
EXTD=
EXTT0=
EXTT1=
EXTT2=
EXTT3=
EXTT4=
EXTT5=
EXTT6=
EXTT7=
EXTT8=
EXTT9=
EXTT10=
EXTT11=
EXTT12=
EXTT13=
EXTT14=
EXTT15=
PLAYORDER=
